<svg id="Sprite" xmlns="http://www.w3.org/2000/svg" width="209" height="209" viewBox="0 0 209 209"><defs><style>.cls-1{fill:#fff;}</style></defs><title>icons</title>
<g id="Wordpress"><path class="cls-1" d="M182.5,158.8a23.8,23.8,0,1,1-23.7,23.8,23.8,23.8,0,0,1,23.8-23.7m0-1.2a25,25,0,1,0,25,25,25,25,0,0,0-25-25h0Z"/><path class="cls-1" d="M172.8,182.5a9.5,9.5,0,0,0,5.5,8.5l-4.7-12.4A9.3,9.3,0,0,0,172.8,182.5Zm16.3-.5a4.9,4.9,0,0,0-.8-2.6,4.4,4.4,0,0,1-1-2.2,1.7,1.7,0,0,1,1.6-1.7h0.1a9.9,9.9,0,0,0-14.7,1.8h3.2a0.4,0.4,0,1,1,.1.8h-1.1l3.6,10.3,2.1-6.2-1.5-4.1h-1a0.4,0.4,0,1,1,.1-0.8h5.2a0.4,0.4,0,1,1,.1.8h-1.1l3.5,10.2,1-3.2a11.3,11.3,0,0,0,.7-3.1h0Zm-6.4,1.3-2.9,8.3a10,10,0,0,0,6-.2h-0.1Zm8.4-5.4a7.1,7.1,0,0,1,.1,1,8.8,8.8,0,0,1-.7,3.4l-3,8.4a9.4,9.4,0,0,0,4.8-8.2,9.3,9.3,0,0,0-1.2-4.6h0Zm-8.6-8.4a13,13,0,1,0,13,13A13,13,0,0,0,182.5,169.5Zm0,24.4a11.4,11.4,0,1,1,11.4-11.4A11.4,11.4,0,0,1,182.5,193.9Z"/></g>
<g id="Pinterest"><path class="cls-1" d="M130.5,158.8a23.8,23.8,0,1,1-23.7,23.8,23.8,23.8,0,0,1,23.8-23.7m0-1.2a25,25,0,1,0,25,25,25,25,0,0,0-25-25h0Z"/><path class="cls-1" d="M130.5,170a12.5,12.5,0,0,0-4.6,24.1,12,12,0,0,1,0-3.6l1.5-6.2a4.5,4.5,0,0,1-.4-1.9c0-1.7,1-3,2.3-3a1.6,1.6,0,0,1,1.6,1.8,24.8,24.8,0,0,1-1,4.2,1.8,1.8,0,0,0,1.8,2.3c2.2,0,3.9-2.3,3.9-5.7a4.9,4.9,0,0,0-5.2-5.1,5.4,5.4,0,0,0-5.6,5.4,4.8,4.8,0,0,0,.9,2.9,0.4,0.4,0,0,1,.1.4l-0.3,1.4c-0.1.2-.2,0.3-0.4,0.2s-2.5-3-2.5-4.8c0-3.9,2.9-7.6,8.3-7.6s7.7,3.1,7.7,7.2-2.7,7.8-6.5,7.8a3.3,3.3,0,0,1-2.9-1.4l-0.8,3a13.8,13.8,0,0,1-1.6,3.3,12.5,12.5,0,1,0,3.7-24.4h0Z"/></g>
<g id="Dribbble"><path class="cls-1" d="M78.5,158.8a23.8,23.8,0,1,1-23.7,23.8,23.8,23.8,0,0,1,23.8-23.7m0-1.2a25,25,0,1,0,25,25,25,25,0,0,0-25-25h0Z"/><path class="cls-1" d="M78.5,195A12.5,12.5,0,1,1,91,182.5,12.5,12.5,0,0,1,78.5,195h0ZM89,184.2a15.6,15.6,0,0,0-6.6-.5,46.4,46.4,0,0,1,2.1,7.6,10.7,10.7,0,0,0,4.6-7.2h0Zm-6.4,8.1a44.5,44.5,0,0,0-2.3-8.1H80.3c-6,2.1-8.2,6.3-8.4,6.7a10.6,10.6,0,0,0,10.7,1.4h0Zm-12.1-2.7a17,17,0,0,1,8.7-7h0.4l-0.9-1.8a39.6,39.6,0,0,1-11,1.5c0,0.1,0,.2,0,0.3a10.6,10.6,0,0,0,2.7,7.1h0Zm-2.5-9.3a40,40,0,0,0,9.9-1.3,67.3,67.3,0,0,0-4-6.2,10.7,10.7,0,0,0-5.9,7.5h0Zm7.9-8.2a57.2,57.2,0,0,1,4,6.3,12,12,0,0,0,5.6-3.9,10.6,10.6,0,0,0-7.1-2.7l-2.5.3h0Zm10.8,3.6a14.3,14.3,0,0,1-6,4.2l0.7,1.5,0.2,0.6a25.1,25.1,0,0,1,7.4.3,10.6,10.6,0,0,0-2.4-6.6h0Z"/></g>
<g id="Behance"><path class="cls-1" d="M26.5,158.8A23.8,23.8,0,1,1,2.8,182.5a23.8,23.8,0,0,1,23.8-23.7m0-1.2a25,25,0,1,0,25,25,25,25,0,0,0-25-25h0Z"/><path class="cls-1" d="M21.2,174.7l2,0.2a4.3,4.3,0,0,1,1.6.6,3,3,0,0,1,1,1.2,4.1,4.1,0,0,1,.4,1.8,3.4,3.4,0,0,1-.5,1.9,3.9,3.9,0,0,1-1.6,1.3,3.7,3.7,0,0,1,2.1,1.4,4.8,4.8,0,0,1,.2,4.5,4,4,0,0,1-1.2,1.4,5.3,5.3,0,0,1-1.7.8l-2,.3H14V174.7h7.2Zm-0.4,6.2a2.4,2.4,0,0,0,1.5-.4,1.6,1.6,0,0,0,.6-1.4,1.8,1.8,0,0,0-.2-0.9l-0.5-.5-0.7-.3h-4v3.6h3.4Zm0.2,6.5h0.9l0.8-.3a1.6,1.6,0,0,0,.6-0.6,2.1,2.1,0,0,0,.2-1,2,2,0,0,0-.7-1.7,2.8,2.8,0,0,0-1.8-.5H17.4v4.2H21Z"/><path class="cls-1" d="M31.7,187.4a3.1,3.1,0,0,0,3.6.2,2,2,0,0,0,.8-1h2.7a5.1,5.1,0,0,1-2,2.9,5.8,5.8,0,0,1-3.2.9,6.4,6.4,0,0,1-2.4-.4,5,5,0,0,1-1.8-1.2,5.5,5.5,0,0,1-1.1-1.9,6.8,6.8,0,0,1-.4-2.4,6.5,6.5,0,0,1,.4-2.3,5.4,5.4,0,0,1,1.2-1.9,5.5,5.5,0,0,1,1.8-1.2,5.8,5.8,0,0,1,2.3-.5,5.3,5.3,0,0,1,2.5.6,5,5,0,0,1,1.7,1.5,6,6,0,0,1,1,2.1,8,8,0,0,1,.2,2.5h-8a3.1,3.1,0,0,0,.8,2.2h0Zm3.5-5.8a2.3,2.3,0,0,0-1.7-.6l-1.2.2-0.8.6a2.2,2.2,0,0,0-.4.8,3.6,3.6,0,0,0-.1.7h5a3,3,0,0,0-.7-1.8h0Z"/><path class="cls-1" d="M30.3,175.9h6.2v1.5H30.3v-1.5Z"/></g>
<g id="Treehouse"><path class="cls-1" d="M182.5,106.8a23.8,23.8,0,1,1-23.7,23.8,23.8,23.8,0,0,1,23.8-23.7m0-1.2a25,25,0,1,0,25,25,25,25,0,0,0-25-25h0Z"/><path class="cls-1" d="M192.1,121.9c-0.9-.5-2.3.3-3.2,1.8l-1.6,2.7a3.5,3.5,0,0,0,.2,3.6h0a20.9,20.9,0,0,0,2,2.4,1.8,1.8,0,1,1-3.1,1,2.2,2.2,0,0,0-.6-1.7c-0.6-.6-1.7.6-2.1,1.8h0a9.4,9.4,0,0,0-.5,2.4v0.2a2,2,0,1,1-2.7-.8h0.1a4,4,0,0,0,.5-1.2l0.3-1.1v-0.2l1-3.6-1.1,2.2c-0.1-.4-0.3-0.4-0.8-0.1l-1,.7a3.7,3.7,0,0,0-1,1.2l-0.5.6a1.8,1.8,0,0,1-2.2-2.8l0.7-.4a14.8,14.8,0,0,0,2.9-1.7l0.4-.3,2.5-1.9-2.1,1.2H180a4.2,4.2,0,0,0-1.7.4l-0.3.3a1.6,1.6,0,1,1-.9-2.9,14.1,14.1,0,0,0,3.3.1h0.3a5.4,5.4,0,0,0,3.4-2.5l1.3-2.3c0.7-1.3.7-2.7-.1-3.1l-1.4-.8a3,3,0,0,0-2.6,0l-9.9,5.6a2.9,2.9,0,0,0-1.3,2.3v10.9a2.9,2.9,0,0,0,1.3,2.3l9.9,5.6a3,3,0,0,0,2.6,0l9.8-5.6a2.9,2.9,0,0,0,1.3-2.3V125.1a2.9,2.9,0,0,0-1.3-2.3l-1.6-.9"/></g>
<g id="Github"><path class="cls-1" d="M130.5,106.8a23.8,23.8,0,1,1-23.7,23.8,23.8,23.8,0,0,1,23.8-23.7m0-1.2a25,25,0,1,0,25,25,25,25,0,0,0-25-25h0Z"/><path class="cls-1" d="M130.5,117.8a13,13,0,0,0-4.1,25.3,0.7,0.7,0,0,0,.9-0.6c0-.3,0-1.3,0-2.4-3.6.8-4.4-1.5-4.4-1.5a3.4,3.4,0,0,0-1.4-1.9c-1.2-.8.1-0.8,0.1-0.8a2.7,2.7,0,0,1,2,1.3,2.8,2.8,0,0,0,3.8,1.1,2.8,2.8,0,0,1,.8-1.7c-2.9-.3-5.9-1.4-5.9-6.4a5,5,0,0,1,1.3-3.5,4.7,4.7,0,0,1,.1-3.4s1.1-.3,3.6,1.3a12.3,12.3,0,0,1,6.5,0c2.5-1.7,3.6-1.3,3.6-1.3a4.7,4.7,0,0,1,.1,3.4,5,5,0,0,1,1.3,3.5c0,5-3,6.1-5.9,6.4a3.1,3.1,0,0,1,.9,2.4c0,1.7,0,3.1,0,3.6a0.7,0.7,0,0,0,.9.6,13,13,0,0,0-4.1-25.3h0Z"/></g>
<g id="Codepen"><path class="cls-1" d="M78.5,106.8a23.8,23.8,0,1,1-23.7,23.8,23.8,23.8,0,0,1,23.8-23.7m0-1.2a25,25,0,1,0,25,25,25,25,0,0,0-25-25h0Z"/><path class="cls-1" d="M66,126.7v7.6a1.1,1.1,0,0,0,.5.9l11.4,7.6a1.1,1.1,0,0,0,1.2,0l11.4-7.6a1.1,1.1,0,0,0,.5-0.9v-7.6a1.1,1.1,0,0,0-.5-0.9l-11.4-7.6a1.1,1.1,0,0,0-1.2,0l-11.4,7.6A1.1,1.1,0,0,0,66,126.7Zm13.6-5.6,8.4,5.6-3.8,2.5-4.7-3.1v-5Zm-2.1,0v5l-4.7,3.1L69,126.7Zm-9.3,7.6,2.7,1.8-2.7,1.8v-3.6Zm9.3,11.2L69,134.3l3.8-2.5,4.7,3.1v5Zm1.1-6.9-3.8-2.5,3.8-2.5,3.8,2.5Zm1.1,6.9v-5l4.7-3.1,3.8,2.5Zm9.3-7.6-2.7-1.8,2.7-1.8v3.6Z"/></g>
<g id="Linkedin"><path class="cls-1" d="M26.5,106.8A23.8,23.8,0,1,1,2.8,130.5a23.8,23.8,0,0,1,23.8-23.7m0-1.2a25,25,0,1,0,25,25,25,25,0,0,0-25-25h0Z"/><path class="cls-1" d="M24,127h4v2h0.7a3.8,3.8,0,0,1,3.6-2.2c4.4,0,4.7,2.7,4.7,6.2v7H33v-6.1c0-1.5-.1-3.5-2.3-3.5S28,132,28,133.8V140H24V127Z"/><path class="cls-1" d="M16,127h4v13H16V127Z"/><circle class="cls-1" cx="18" cy="121.6" r="2.2"/></g><g id="Instagram"><path class="cls-1" d="M182.5,54.8a23.8,23.8,0,1,1-23.7,23.8,23.8,23.8,0,0,1,23.8-23.7m0-1.2a25,25,0,1,0,25,25,25,25,0,0,0-25-25h0Z"/><path class="cls-1" d="M191.4,67.5H173.6a2.1,2.1,0,0,0-2.1,2.1V87.4a2.1,2.1,0,0,0,2.1,2.1h17.9a2.1,2.1,0,0,0,2.1-2.1V69.6A2.1,2.1,0,0,0,191.4,67.5Zm-4.8,3.4a0.7,0.7,0,0,1,.7-0.7h2.8a0.7,0.7,0,0,1,.7.7v2.8a0.7,0.7,0,0,1-.7.7h-2.7a0.7,0.7,0,0,1-.7-0.7V70.9Zm-4.1,3.4a4.1,4.1,0,1,1-4.1,4.1A4.1,4.1,0,0,1,182.5,74.4Zm8.3,11.7h0a0.7,0.7,0,0,1-.7.7H174.9a0.7,0.7,0,0,1-.7-0.7h0V77.1h1.5a6.9,6.9,0,1,0,13.5,0h1.5v8.9Z"/></g>
<g id="Google"><path class="cls-1" d="M130.5,54.8a23.8,23.8,0,1,1-23.7,23.8,23.8,23.8,0,0,1,23.8-23.7m0-1.2a25,25,0,1,0,25,25,25,25,0,0,0-25-25h0Z"/><path class="cls-1" d="M125.6,77.1v3.3H131a5.2,5.2,0,0,1-5.4,4.1,6,6,0,0,1,0-12.1,5.4,5.4,0,0,1,3.8,1.5l2.6-2.5a9.2,9.2,0,0,0-6.4-2.5,9.5,9.5,0,0,0,0,19.1c5.5,0,9.2-3.9,9.2-9.3a8.7,8.7,0,0,0-.2-1.6h-9Z"/><path class="cls-1" d="M146.1,76.9h-2.8V74h-2.8v2.8h-2.8v2.8h2.8v2.8h2.8V79.7h2.8V76.9Z"/></g>
<g id="Facebook"><path class="cls-1" d="M78.5,54.8A23.8,23.8,0,1,1,54.8,78.5,23.8,23.8,0,0,1,78.5,54.8m0-1.2a25,25,0,1,0,25,25,25,25,0,0,0-25-25h0Z"/><path class="cls-1" d="M80.8,70.9h3.8V66.3H80.8a5.4,5.4,0,0,0-5.3,5.3v2.3H72.4v4.6h3.1V90.7H80V78.5h3.8l0.8-4.6H80V71.6A0.8,0.8,0,0,1,80.8,70.9Z"/></g><g id="Twitter"><path class="cls-1" d="M26.5,54.8A23.8,23.8,0,1,1,2.8,78.5,23.8,23.8,0,0,1,26.5,54.8m0-1.2a25,25,0,1,0,25,25,25,25,0,0,0-25-25h0Z"/><path class="cls-1" d="M21.6,84.2a5.2,5.2,0,0,1-4.8-3.6,3,3,0,0,0,1.9-.1c-2.3-.5-4.6-2.5-4.6-5h0a9.1,9.1,0,0,0,2.8.6,4.8,4.8,0,0,1-1.9-4.3,5.2,5.2,0,0,1,.8-2.6,14.6,14.6,0,0,0,10.6,5.4A5.2,5.2,0,0,1,35.1,70a10.3,10.3,0,0,0,3.3-1.2,5.2,5.2,0,0,1-2.3,2.8,10.1,10.1,0,0,0,2.9-.8h0a10.3,10.3,0,0,1-2.6,2.7c0,0.2,0,.4,0,0.7A14.6,14.6,0,0,1,14,86.3,10.6,10.6,0,0,0,21.6,84.2Z"/></g>
<g id="Youtube"><path class="cls-1" d="M182.3,2.8a23.8,23.8,0,1,1-23.7,23.8A23.8,23.8,0,0,1,182.3,2.8m0-1.2a25,25,0,1,0,25,25,25,25,0,0,0-25-25h0Z"/><path class="cls-1" d="M194.7,21.5a5.4,5.4,0,0,0-1-2.5,3.6,3.6,0,0,0-2.5-1.1c-3.5-.3-8.7-0.3-8.7-0.3h0s-5.2,0-8.7.3a3.6,3.6,0,0,0-2.5,1.1,5.4,5.4,0,0,0-1,2.5,38,38,0,0,0-.2,4v1.9a38.1,38.1,0,0,0,.2,4,5.4,5.4,0,0,0,1,2.5A4.3,4.3,0,0,0,174,35c2,0.2,8.5.2,8.5,0.2s5.3,0,8.8-.3a3.6,3.6,0,0,0,2.5-1.1,5.4,5.4,0,0,0,1-2.5,38,38,0,0,0,.2-4V25.5a38.9,38.9,0,0,0-.3-4h0Zm-14.8,8.2v-7l6.8,3.5Z"/></g>
<g id="Location"><path class="cls-1" d="M130.5,2.8a23.8,23.8,0,1,1-23.7,23.8A23.8,23.8,0,0,1,130.5,2.8m0-1.2a25,25,0,1,0,25,25,25,25,0,0,0-25-25h0Z"/><path class="cls-1" d="M130.5,13.5a8.1,8.1,0,0,0-8.1,8.1c0,8.1,8.1,17.9,8.1,17.9s8.1-9.7,8.1-17.9A8.1,8.1,0,0,0,130.5,13.5Zm0,13.1a5,5,0,1,1,5-5A5,5,0,0,1,130.5,26.6Z"/></g>
<g id="Phone"><path class="cls-1" d="M78.5,2.8A23.8,23.8,0,1,1,54.8,26.5,23.8,23.8,0,0,1,78.5,2.8m0-1.2a25,25,0,1,0,25,25,25,25,0,0,0-25-25h0Z"/><path class="cls-1" d="M83.9,28.8c-1.5,1.5-1.5,3.1-3.1,3.1s-3.1-1.5-4.6-3.1-3.1-3.1-3.1-4.6,1.5-1.5,3.1-3.1S73.1,15,71.6,15,67,19.6,67,19.6c0,3.1,3.2,9.3,6.1,12.3S82.3,38,85.4,38c0,0,4.6-3.1,4.6-4.6S85.4,27.3,83.9,28.8Z"/></g><g id="Mail"><path class="cls-1" d="M26.5,2.8A23.8,23.8,0,1,1,2.8,26.5,23.8,23.8,0,0,1,26.5,2.8m0-1.2a25,25,0,1,0,25,25,25,25,0,0,0-25-25h0Z"/><path class="cls-1" d="M26.5,30.1l-3.1-2.7-8.8,7.6a1.8,1.8,0,0,0,1.2.5H37.2a1.8,1.8,0,0,0,1.2-.5l-8.8-7.6Z"/><path class="cls-1" d="M38.4,18.1a1.8,1.8,0,0,0-1.2-.5H15.8a1.8,1.8,0,0,0-1.2.5L26.5,28.3Z"/><polygon class="cls-1" points="14 19.1 14 34 22.6 26.6 14 19.1"/><polygon class="cls-1" points="30.4 26.6 39 34 39 19.1 30.4 26.6"/></g></svg>